<?xml version="1.0" encoding="utf-8"?>
<!-- Generator: Adobe Illustrator 24.0.2, SVG Export Plug-In . SVG Version: 6.00 Build 0)  -->
<svg version="1.1" id="图层_1" xmlns="http://www.w3.org/2000/svg" xmlns:xlink="http://www.w3.org/1999/xlink" x="0px" y="0px"
	 viewBox="0 0 900 235" style="enable-background:new 0 0 900 235;" xml:space="preserve">
<style type="text/css">
	.st0{fill:#F0F0F0;}
</style>
<g>
	<path class="st0" d="M894.1,126.5c-2,4.6-4,9.3-6.1,13.8c-2.7,5.8-7.1,10.2-11.8,14.3c-6,5.3-13,9.1-20.8,11.4
		c-8.1,2.4-16.4,2.4-24.7,1.5c-8.8-0.9-16.8-4.3-24-9.2c-9.2-6.3-15.9-14.8-20.2-25.2c-2.7-6.7-4.3-13.7-4.1-20.8
		c0.3-12.3,3.9-23.7,11.7-33.6c8.3-10.6,18.8-17.4,31.7-20.7c11.8-3,23.4-1.9,34.6,2.6c15.1,6.1,25.4,17.1,31.8,31.9
		c0.8,1.8,1.3,3.9,1.9,5.8c0,0.7,0,1.4,0,2.1c-0.7,0.2-1.3,0.5-2,0.5c-7.2,0-14.4,0-21.5,0c-1.8,0-2.9-0.9-3.6-2.5
		c-2-4.5-5.3-8.1-9.3-10.8c-7.4-5.1-15.4-7.5-24.6-5.4C825.2,84,818.8,87.5,814,94c-8.4,11.4-8.4,26.2,0.6,37.5
		c8.3,10.4,19.7,13.4,30.6,11.3c9.8-1.8,17.4-7.4,21.8-16.7c0.7-1.4,1.6-1.8,3.1-1.8c8,0.1,16,0,23.9,0
		C894.1,125.1,894.1,125.8,894.1,126.5z"/>
	<path class="st0" d="M475.3,105.3c-1-0.9-1.9-1.6-2.7-2.4c-5-4.7-9.6-10-15.2-13.9c-9.4-6.6-19.9-6.8-30.4-2.4
		c-8.3,3.5-14,9.8-16.6,18.2c-4.8,15.4,1.3,31.6,17.8,38.3c12.7,5.1,24.5,2.6,34.4-7.1c15.4-15.2,30.8-30.4,46.1-45.6
		c5.8-5.8,11.6-11.6,17.7-17.1c6.2-5.6,13.2-9.7,21.4-11.9c6.1-1.7,12.3-2.8,18.6-2.5c6,0.2,11.8,1.6,17.5,3.6
		c9.4,3.3,17.2,8.9,23.6,16.4c3.2,3.8,5.7,8.2,8.9,12.9c-1.8,0.3-2.6,0.6-3.5,0.6c-8.3,0-16.7,0.1-25,0c-1.1,0-2.5-0.3-3.4-1.1
		c-6-5.2-13.2-7.5-21-7.3c-7.7,0.2-14.8,2.6-20.5,8.3c-12.5,12.3-25,24.7-37.5,37c-9,8.9-17.9,17.9-27.2,26.5
		c-7.5,7-16.4,11.7-26.7,13.3c-3.9,0.6-7.8,1.6-11.6,1.5c-13.2-0.4-25.2-4.2-35.7-12.7c-8.3-6.8-14.5-15-17.9-25.1
		c-3-8.7-3.9-17.7-2.2-27.1c1.2-7,3.3-13.6,6.8-19.5c4.9-8.1,11.5-14.6,19.7-19.6c11.1-6.7,23.1-9,35.7-7.7
		c11.6,1.2,22.2,5.5,30.9,13.7c4.6,4.3,9,8.7,13.6,13c1.6,1.5,1.9,2.2,0,3.9C485.7,94.6,480.7,99.9,475.3,105.3z"/>
	<path class="st0" d="M666.2,83.4c-1.2,0-2.2,0-3.1,0c-11.6,0-23.2-0.1-34.8,0c-2.2,0-3.2-0.5-3.1-2.9c0.2-6.6,0.1-13.1,0-19.7
		c0-1.8,0.6-2.5,2.5-2.5c34.4,0,68.8,0,103.2,0c1.7,0,2,0.4,2,2.3c-0.2,6.6-0.3,13.3,0,20c0.1,2.3-0.6,2.9-2.7,2.8
		c-11.7-0.1-23.4,0-35.1,0c-1,0-1.9,0-3.3,0c0,1.2,0,2.2,0,3.2c0,26.8,0,53.6,0,80.4c0,2.6-0.7,3.4-3.3,3.3
		c-6.1-0.2-12.2-0.1-18.4-0.1c-3.8,0-4-0.1-4-3.9c0-26.5,0-53,0-79.6C666.2,85.7,666.2,84.7,666.2,83.4z"/>
	<path class="st0" d="M511.5,142.6c6.2-6.4,11.9-12.3,17.9-18.5c4,4,7.8,7.8,11.6,11.7c7.4,7.8,16.7,11,27.1,9.8
		c9.9-1.2,18.1-6,23.2-15.1c0.5-0.9,1-1.8,1.5-2.7c0.1-0.1-0.1-0.3-0.2-0.7c-7.7,0-15.5,0-23.3,0c-3.6,0-3.6,0-3.6-3.8
		c0-5.9,0-11.9,0-17.8c0-3.4,0-3.4,3.6-3.4c15.5,0,31,0,46.6,0c4,0,3.9,0.2,4.6,4.4c1.2,7.3,0.9,14.7-1,21.9
		c-1.9,7-4.7,13.6-9.1,19.4c-5.9,7.7-13,14-21.8,17.9c-5.1,2.2-10.7,3.7-16.1,4.5c-5.6,0.8-11.4,0.7-17,0c-8.2-1-16-3.8-22.5-8.8
		C525.2,155.4,518.5,148.8,511.5,142.6z"/>
	<path class="st0" d="M745,114.1c0-17.6,0-35.1,0-52.7c0-2.3,0.6-3.1,3-3.1c6.7,0.2,13.3,0.1,20,0c2.2,0,2.7,0.7,2.7,2.8
		c0,35.4-0.1,70.8,0,106.2c0,2.3-1,2.9-3,2.9c-6.6-0.1-13.1-0.1-19.7,0c-2.3,0-3-0.8-3-3.1C745.1,149.4,745,131.7,745,114.1z"/>
	<g>
		<g>
			<path class="st0" d="M174.9,77.4c7.6,0,13.8-6.2,13.8-13.8c0-7.6-6.2-13.8-13.8-13.8c-7.6,0-13.8,6.2-13.8,13.8
				C161.1,71.2,167.3,77.4,174.9,77.4z"/>
			<path class="st0" d="M191.2,171.4c0-5.2-2.5-9.8-6.3-12.8c0,0,0-0.1-0.1-0.1c-1-0.7-1.9-1.4-1.9-1.4s-8.6-8.3,3.5-14
				c0.7-0.3,1.3-0.7,1.8-1c8.7-4.7,14.5-13.9,14.5-24.4c0-15.4-12.4-27.8-27.8-27.8c-15.4,0-27.8,12.4-27.8,27.8
				c0,11.2,6.7,20.9,16.3,25.3c0.1,0.1,0.2,0.1,0.4,0.2c12.1,5.6,3.5,13.9,3.5,13.9l-1,0.7l0,0c-4.5,2.9-7.6,7.9-7.6,13.6
				c0,9,7.3,16.3,16.3,16.3C183.9,187.7,191.2,180.4,191.2,171.4z"/>
			<path class="st0" d="M22.2,134.1c5.2,0,9.8-2.5,12.8-6.3c0,0,0.1,0,0.1-0.1c0.7-1,1.5-1.8,1.5-1.8s8.3-8.6,14,3.5
				c0.3,0.7,0.7,1.3,1,1.8c4.7,8.7,13.9,14.5,24.4,14.5c15.4,0,27.8-12.4,27.8-27.8C103.8,102.5,91.3,90,76,90
				c-11.2,0-20.9,6.7-25.3,16.3c-0.1,0.1-0.1,0.2-0.2,0.4c-5.6,12.1-14,3.5-14,3.5l-0.7-1l0,0c-2.9-4.5-7.9-7.6-13.6-7.6
				c-9,0-16.3,7.3-16.3,16.3C5.9,126.8,13.2,134.1,22.2,134.1z"/>
			<path class="st0" d="M327.6,134.1c-5.2,0-9.8-2.5-12.8-6.3c0,0-0.1,0-0.1-0.1c-0.7-1-1.5-1.8-1.5-1.8s-8.3-8.6-14,3.5
				c-0.3,0.7-0.7,1.3-1,1.8c-4.7,8.7-13.9,14.5-24.4,14.5c-15.4,0-27.8-12.4-27.8-27.8c0-15.4,12.4-27.8,27.8-27.8
				c11.2,0,20.9,6.7,25.3,16.3c0.1,0.1,0.1,0.2,0.2,0.4c5.6,12.1,14,3.5,14,3.5l0.7-1l0,0c2.9-4.5,7.9-7.6,13.6-7.6
				c9,0,16.3,7.3,16.3,16.3C343.9,126.8,336.6,134.1,327.6,134.1z"/>
			<g>
				<path class="st0" d="M76,72.5c7.8,0,15.2,2,21.6,5.5c14.5-28,43.7-47.2,77.4-47.2c0.1,0,0.2,0,0.3,0c-8-0.3-14.4-6.9-14.4-15
					c0-8.3,6.7-15.1,15.1-15.1c0.1,0,0.1,0,0.2,0v0c-0.4,0-0.7,0-1,0c-49,0-91,30-108.5,72.8C69.6,72.9,72.8,72.5,76,72.5z"/>
				<path class="st0" d="M176,204.9L176,204.9c0,0-0.1,0-0.1,0c0,0,0,0-0.1,0c-0.1,0-0.1,0-0.2,0c-0.2,0-0.4,0-0.7,0
					c-33.7,0-62.9-19.2-77.4-47.2c-6.4,3.5-13.8,5.5-21.6,5.5c-3.2,0-6.4-0.3-9.4-1C84,204.9,126,235,174.9,235c0.2,0,0.4,0,0.6,0
					c0.1,0,0.2,0,0.3,0c0.5,0,0.9,0,1.4-0.1c7.7-0.7,13.7-7.1,13.7-15C190.8,211.7,184.2,205,176,204.9z"/>
			</g>
			<g>
				<path class="st0" d="M252.3,78c6.4-3.5,13.8-5.5,21.6-5.5c3.2,0,6.4,0.3,9.5,1C266,31.2,224.6,1.2,176,0.8v0c-0.1,0-0.1,0-0.2,0
					c-8.3,0-15.1,6.7-15.1,15.1c0,8.1,6.4,14.7,14.4,15c0.2,0,0.4,0,0.6,0c0.1,0,0.1,0,0.2,0C209.3,31.3,238,50.3,252.3,78z"/>
				<path class="st0" d="M273.9,163.2c-7.8,0-15.2-2-21.6-5.5c-14.3,27.7-43.1,46.8-76.4,47.1v0c8.2,0.1,14.9,6.8,14.9,15.1
					c0,7.8-6,14.3-13.7,15c48-0.9,89-30.7,106.2-72.7C280.3,162.9,277.2,163.2,273.9,163.2z"/>
			</g>
		</g>
	</g>
</g>
</svg>
