<?xml version="1.0" encoding="utf-8"?>
<!-- Generator: Adobe Illustrator 24.0.2, SVG Export Plug-In . SVG Version: 6.00 Build 0)  -->
<svg version="1.1" id="图层_1" xmlns="http://www.w3.org/2000/svg" xmlns:xlink="http://www.w3.org/1999/xlink" x="0px" y="0px"
	 viewBox="0 0 900 235" style="enable-background:new 0 0 900 235;" xml:space="preserve">
<style type="text/css">
	.st0{fill:#0050AF;}
	.st1{fill:#7F2287;}
	.st2{fill:none;}
	.st3{fill:#0EBDC6;}
</style>
<g>
	<path class="st0" d="M894.1,126.5c-2.03,4.61-3.98,9.26-6.12,13.82c-2.7,5.75-7.09,10.22-11.75,14.32
		c-6.04,5.32-13.04,9.1-20.8,11.4c-8.14,2.41-16.39,2.39-24.74,1.52c-8.84-0.93-16.8-4.29-23.97-9.22
		c-9.17-6.31-15.92-14.8-20.18-25.19c-2.74-6.69-4.34-13.71-4.14-20.84c0.35-12.34,3.89-23.7,11.7-33.64
		c8.28-10.55,18.84-17.43,31.71-20.71c11.76-3,23.41-1.91,34.6,2.6c15.09,6.08,25.41,17.13,31.84,31.93c0.8,1.85,1.25,3.86,1.86,5.8
		c0,0.71,0,1.42,0,2.13c-0.66,0.17-1.33,0.5-1.99,0.5c-7.18,0.04-14.36,0.01-21.54,0.03c-1.83,0.01-2.88-0.93-3.59-2.51
		c-2.03-4.52-5.31-8.07-9.32-10.81c-7.42-5.07-15.42-7.48-24.6-5.41C825.24,83.97,818.77,87.53,814,94
		c-8.41,11.39-8.39,26.24,0.57,37.47c8.29,10.39,19.74,13.35,30.64,11.32c9.78-1.82,17.4-7.44,21.85-16.67
		c0.7-1.45,1.63-1.77,3.1-1.76c7.98,0.06,15.96,0.02,23.93,0.02C894.1,125.08,894.1,125.79,894.1,126.5z"/>
	<path class="st0" d="M475.28,105.31c-1.03-0.89-1.9-1.61-2.73-2.38c-5.04-4.67-9.63-9.98-15.2-13.9
		c-9.4-6.63-19.86-6.83-30.37-2.42c-8.3,3.49-13.96,9.82-16.58,18.18c-4.82,15.37,1.3,31.64,17.84,38.35
		c12.66,5.13,24.46,2.62,34.36-7.12c15.41-15.17,30.75-30.41,46.15-45.58c5.84-5.75,11.59-11.59,17.68-17.07
		c6.18-5.55,13.22-9.66,21.38-11.92c6.13-1.7,12.27-2.76,18.59-2.53c6.02,0.22,11.83,1.58,17.54,3.57
		c9.41,3.28,17.19,8.92,23.57,16.38c3.24,3.78,5.71,8.22,8.93,12.94c-1.75,0.3-2.63,0.58-3.51,0.58
		c-8.34,0.03-16.68,0.06-25.02-0.03c-1.14-0.01-2.54-0.34-3.37-1.05c-6.05-5.2-13.21-7.49-20.95-7.32
		c-7.73,0.17-14.83,2.63-20.54,8.28c-12.47,12.35-24.98,24.66-37.49,36.97c-9.03,8.88-17.91,17.92-27.18,26.54
		c-7.51,6.99-16.38,11.72-26.67,13.32c-3.87,0.6-7.77,1.59-11.63,1.48c-13.2-0.35-25.19-4.2-35.66-12.66
		c-8.34-6.75-14.48-15.03-17.88-25.05c-2.96-8.72-3.85-17.73-2.19-27.08c1.23-6.97,3.25-13.56,6.83-19.49
		c4.88-8.08,11.51-14.58,19.69-19.57c11.06-6.74,23.13-8.98,35.69-7.72c11.6,1.17,22.18,5.54,30.86,13.69
		c4.58,4.29,9.01,8.73,13.6,13.01c1.59,1.48,1.92,2.18-0.02,3.95C485.66,94.58,480.68,99.9,475.28,105.31z"/>
	<path class="st0" d="M666.22,83.36c-1.2,0-2.15,0-3.1,0c-11.62,0-23.24-0.05-34.85,0.04c-2.23,0.02-3.16-0.47-3.09-2.93
		c0.16-6.56,0.1-13.12,0.02-19.69c-0.02-1.84,0.58-2.47,2.45-2.47c34.41,0.04,68.82,0.04,103.23,0.01c1.7,0,2.05,0.44,1.99,2.26
		c-0.22,6.64-0.25,13.3-0.02,19.95c0.08,2.32-0.57,2.86-2.69,2.85c-11.71-0.06-23.41-0.03-35.12-0.03c-0.97,0-1.93,0-3.27,0
		c0,1.16,0,2.19,0,3.21c0,26.78-0.03,53.57,0.05,80.35c0.01,2.57-0.71,3.36-3.28,3.28c-6.11-0.18-12.24-0.06-18.36-0.06
		c-3.83,0-3.96-0.12-3.96-3.85c0-26.52,0-53.03,0-79.55C666.22,85.71,666.22,84.67,666.22,83.36z"/>
	<path class="st1" d="M511.5,142.55c6.17-6.39,11.93-12.34,17.91-18.53c3.98,4.02,7.83,7.79,11.56,11.69
		c7.43,7.75,16.69,11.04,27.09,9.82c9.94-1.17,18.12-5.97,23.2-15.07c0.5-0.9,0.99-1.8,1.45-2.72c0.06-0.12-0.08-0.33-0.18-0.71
		c-7.74,0-15.53,0-23.32,0c-3.6,0-3.6,0-3.6-3.75c0-5.94,0-11.89,0-17.83c0-3.42,0-3.42,3.56-3.42c15.53,0,31.05,0.03,46.58-0.02
		c4.05-0.01,3.94,0.19,4.61,4.37c1.17,7.33,0.9,14.71-1.05,21.89c-1.89,6.96-4.66,13.56-9.09,19.37c-5.88,7.7-13,14.02-21.84,17.9
		c-5.07,2.23-10.65,3.72-16.14,4.46c-5.6,0.75-11.44,0.73-17.05,0.03c-8.15-1.01-16.04-3.76-22.54-8.81
		C525.22,155.45,518.5,148.79,511.5,142.55z"/>
	<path class="st0" d="M745.02,114.07c0-17.57,0.04-35.14-0.05-52.71c-0.01-2.28,0.56-3.11,2.97-3.06
		c6.65,0.15,13.31,0.13,19.96,0.01c2.17-0.04,2.7,0.73,2.69,2.78c-0.05,35.41-0.06,70.81,0.01,106.22c0,2.29-0.95,2.87-2.96,2.86
		c-6.57-0.05-13.13-0.06-19.7,0.01c-2.26,0.02-2.98-0.83-2.97-3.13C745.06,149.39,745.02,131.73,745.02,114.07z"/>
	<g>
		<g>
			<path class="st3" d="M174.91,77.37c7.63,0,13.8-6.18,13.8-13.8c0-7.63-6.18-13.81-13.8-13.81c-7.62,0-13.8,6.18-13.8,13.81
				C161.11,71.19,167.29,77.37,174.91,77.37z"/>
			<path class="st3" d="M191.17,171.44c0-5.22-2.51-9.82-6.34-12.78c-0.03-0.03-0.02-0.09-0.06-0.11c-1.04-0.74-1.85-1.45-1.85-1.45
				s-8.62-8.33,3.5-13.96c0.7-0.33,1.28-0.67,1.76-1.03c8.66-4.71,14.54-13.89,14.54-24.44c0.01-15.37-12.44-27.83-27.8-27.84
				c-15.37,0-27.83,12.44-27.84,27.81c0,11.23,6.67,20.89,16.26,25.29c0.13,0.06,0.23,0.13,0.37,0.19
				c12.12,5.63,3.49,13.95,3.49,13.95l-1.03,0.72l0.01,0.01c-4.52,2.89-7.56,7.86-7.56,13.62c0,8.99,7.27,16.27,16.27,16.28
				C183.88,187.71,191.16,180.43,191.17,171.44z"/>
			<path class="st3" d="M22.17,134.12c5.23,0,9.82-2.51,12.78-6.34c0.03-0.03,0.09-0.02,0.11-0.06c0.74-1.04,1.45-1.85,1.45-1.85
				s8.33-8.62,13.96,3.5c0.33,0.7,0.67,1.28,1.03,1.76c4.71,8.66,13.89,14.54,24.44,14.54c15.37,0.01,27.83-12.44,27.84-27.8
				c0-15.37-12.44-27.83-27.81-27.84c-11.23,0-20.89,6.67-25.29,16.26c-0.06,0.12-0.13,0.23-0.19,0.37
				c-5.63,12.12-13.95,3.49-13.95,3.49l-0.72-1.03c0,0-0.01,0.01-0.01,0.01c-2.88-4.52-7.86-7.56-13.61-7.56
				c-8.99,0-16.27,7.27-16.28,16.27C5.9,126.83,13.18,134.11,22.17,134.12z"/>
			<path class="st0" d="M327.65,134.12c-5.23,0-9.82-2.51-12.78-6.34c-0.03-0.03-0.09-0.02-0.11-0.06
				c-0.74-1.04-1.45-1.85-1.45-1.85s-8.33-8.62-13.96,3.5c-0.33,0.7-0.67,1.28-1.03,1.76c-4.71,8.66-13.89,14.54-24.44,14.54
				c-15.37,0.01-27.83-12.44-27.84-27.8c0-15.37,12.44-27.83,27.81-27.84c11.23,0,20.89,6.67,25.29,16.26
				c0.06,0.12,0.13,0.23,0.19,0.37c5.63,12.12,13.95,3.49,13.95,3.49l0.72-1.03c0,0,0.01,0.01,0.01,0.01
				c2.88-4.52,7.86-7.56,13.61-7.56c8.99,0,16.27,7.27,16.28,16.27C343.92,126.83,336.64,134.11,327.65,134.12z"/>
			<g>
				<path class="st3" d="M75.98,72.53c7.83,0,15.19,1.98,21.62,5.47c14.47-28.01,43.67-47.16,77.36-47.16c0.1,0,0.2,0.01,0.3,0.01
					c-8.03-0.31-14.45-6.91-14.45-15.01c0-8.31,6.74-15.05,15.05-15.05c0.06,0,0.13,0.01,0.19,0.01V0.78
					c-0.35,0-0.69-0.02-1.04-0.02C126.01,0.73,84.05,30.81,66.56,73.51C69.6,72.87,72.75,72.53,75.98,72.53z"/>
				<path class="st3" d="M175.96,204.9L175.96,204.9c-0.04-0.01-0.08-0.01-0.11,0c-0.02,0-0.04,0-0.06,0
					c-0.06,0-0.11,0.01-0.17,0.01c-0.22,0.01-0.44,0.02-0.66,0.02c-33.69,0-62.9-19.16-77.36-47.17
					c-6.43,3.49-13.79,5.47-21.62,5.47c-3.23,0-6.38-0.34-9.42-0.99c17.48,42.66,59.4,72.73,108.35,72.76
					c0.19,0,0.38-0.01,0.57-0.01c0.1,0,0.21,0.01,0.31,0.01c0.47,0,0.93-0.03,1.38-0.07c7.66-0.7,13.67-7.14,13.67-14.98
					C190.84,211.69,184.19,205,175.96,204.9z"/>
			</g>
			<g>
				<path class="st0" d="M252.32,77.99c6.42-3.49,13.78-5.47,21.6-5.47c3.24,0,6.4,0.35,9.45,0.99
					C266.01,31.16,224.56,1.23,176.04,0.78v0.01c-0.06,0-0.12-0.01-0.19-0.01c-8.31,0-15.05,6.74-15.05,15.05
					c0,8.11,6.42,14.7,14.45,15.01c0.2,0.01,0.39,0.03,0.59,0.03c0.07,0,0.13-0.01,0.2-0.01C209.28,31.27,238,50.3,252.32,77.99z"/>
				<path class="st0" d="M273.92,163.23c-7.82,0-15.18-1.98-21.6-5.47c-14.33,27.71-43.09,46.75-76.35,47.13v0.01
					c8.23,0.09,14.88,6.79,14.88,15.05c0,7.84-6.01,14.28-13.67,14.98c48.02-0.89,88.97-30.67,106.19-72.69
					C280.32,162.88,277.16,163.23,273.92,163.23z"/>
			</g>
		</g>
	</g>
</g>
</svg>
