<svg xmlns="http://www.w3.org/2000/svg" viewBox="0 0 364.68 96.49">
    <defs>
        <style>
            .cls-1 {
                fill: #26497f;
            }

            .cls-2 {
                fill: #6c3079;
            }

            .cls-3 {
                fill: none;
            }

            .cls-4 {
                fill: #38a6a4;
            }

            .cls-5 {
                fill: #224c88;
            }
        </style>
    </defs>
    <path class="cls-1"
        d="M386.93,83.74c-.84,1.89-1.64,3.8-2.52,5.67a18.42,18.42,0,0,1-4.82,5.88,22.26,22.26,0,0,1-8.54,4.68,25.78,25.78,0,0,1-10.16.63,21.17,21.17,0,0,1-9.84-3.79,22.81,22.81,0,0,1-8.28-10.34,20.84,20.84,0,0,1-1.7-8.56,22.76,22.76,0,0,1,4.8-13.81,23.55,23.55,0,0,1,13-8.51,22.46,22.46,0,0,1,14.2,1.07,23.57,23.57,0,0,1,13.07,13.11,24.45,24.45,0,0,1,.77,2.38V73a3.63,3.63,0,0,1-.82.2c-2.95,0-5.9,0-8.85,0a1.5,1.5,0,0,1-1.47-1A10.59,10.59,0,0,0,372,67.78a12.38,12.38,0,0,0-10.1-2.22A12.65,12.65,0,0,0,354,70.4a12.38,12.38,0,0,0,.24,15.38,12.56,12.56,0,0,0,12.57,4.65,12.05,12.05,0,0,0,9-6.85,1.17,1.17,0,0,1,1.27-.72c3.27,0,6.55,0,9.83,0Z"
        transform="translate(-22.25 -31.8)" />
    <path class="cls-1"
        d="M215,75c-.42-.36-.78-.66-1.12-1a64.44,64.44,0,0,0-6.24-5.71c-3.86-2.72-8.15-2.81-12.47-1a11.72,11.72,0,0,0-6.81,7.47c-2,6.31.54,13,7.33,15.74,5.2,2.11,10,1.08,14.11-2.92q9.48-9.34,18.94-18.71c2.4-2.37,4.76-4.76,7.26-7a21.71,21.71,0,0,1,8.78-4.9,25.1,25.1,0,0,1,7.63-1,24.49,24.49,0,0,1,7.21,1.47,22.31,22.31,0,0,1,9.68,6.73,62.59,62.59,0,0,1,3.66,5.31,11.28,11.28,0,0,1-1.44.24c-3.42,0-6.85,0-10.27,0a2.33,2.33,0,0,1-1.38-.43,12.42,12.42,0,0,0-8.61-3,11.94,11.94,0,0,0-8.43,3.4q-7.68,7.61-15.39,15.18c-3.71,3.65-7.35,7.36-11.16,10.9a20.54,20.54,0,0,1-10.95,5.46,27,27,0,0,1-4.78.61,23.5,23.5,0,0,1-14.64-5.2,22.41,22.41,0,0,1-7.34-10.28,22,22,0,0,1-.9-11.12,23,23,0,0,1,2.8-8,23.64,23.64,0,0,1,8.09-8A23,23,0,0,1,203.18,56a21.15,21.15,0,0,1,12.67,5.62c1.88,1.76,3.7,3.58,5.59,5.34.65.61.78.89,0,1.62C219.23,70.64,217.18,72.82,215,75Z"
        transform="translate(-22.25 -31.8)" />
    <path class="cls-1"
        d="M293.36,66h-1.27c-4.77,0-9.54,0-14.31,0-.91,0-1.29-.19-1.27-1.2.07-2.7,0-5.39,0-8.09,0-.75.24-1,1-1q21.19,0,42.39,0c.7,0,.84.18.82.93-.09,2.73-.11,5.46,0,8.19,0,.95-.23,1.18-1.1,1.17-4.81,0-9.62,0-14.42,0h-1.35v1.32q0,16.5,0,33c0,1-.29,1.38-1.34,1.35-2.51-.08-5,0-7.54,0-1.57,0-1.62,0-1.62-1.58q0-16.33,0-32.66Z"
        transform="translate(-22.25 -31.8)" />
    <path class="cls-2"
        d="M229.84,90.33c2.53-2.62,4.89-5.07,7.35-7.6,1.63,1.64,3.21,3.2,4.74,4.79a12.75,12.75,0,0,0,11.13,4,12,12,0,0,0,9.52-6.18c.21-.37.41-.74.6-1.12,0,0,0-.14-.08-.29h-9.57c-1.48,0-1.48,0-1.48-1.54V75.09c0-1.4,0-1.4,1.46-1.4,6.38,0,12.75,0,19.13,0,1.66,0,1.62.08,1.89,1.79a21.31,21.31,0,0,1-.43,9,22.79,22.79,0,0,1-3.73,8,23.08,23.08,0,0,1-9,7.35,25.3,25.3,0,0,1-6.63,1.83,28.27,28.27,0,0,1-7,0A18.77,18.77,0,0,1,238.52,98C235.47,95.63,232.71,92.89,229.84,90.33Z"
        transform="translate(-22.25 -31.8)" />
    <path class="cls-1"
        d="M325.72,78.64c0-7.22,0-14.43,0-21.64,0-.94.23-1.28,1.22-1.26,2.73.06,5.46,0,8.2,0,.88,0,1.1.3,1.1,1.15q0,21.8,0,43.61c0,.94-.38,1.18-1.21,1.17q-4,0-8.09,0c-.93,0-1.23-.34-1.22-1.28C325.74,93.14,325.72,85.89,325.72,78.64Z"
        transform="translate(-22.25 -31.8)" />
    <polygon class="cls-3" points="70.17 96.24 70.17 96.27 70.17 96.24 70.17 96.24" />
    <path class="cls-4" d="M91.64,63.57A5.67,5.67,0,1,0,86,57.9,5.67,5.67,0,0,0,91.64,63.57Z"
        transform="translate(-22.25 -31.8)" />
    <path class="cls-4"
        d="M98.32,102.19a6.62,6.62,0,0,0-2.61-5.25s0,0,0,0c-.43-.31-.76-.6-.76-.6s-3.54-3.42,1.44-5.73a3.7,3.7,0,0,0,.72-.42,11.43,11.43,0,1,0-10.2.34l.15.08c5,2.31,1.44,5.73,1.44,5.73l-.43.29h0A6.6,6.6,0,0,0,85,102.19a6.69,6.69,0,0,0,13.37,0Z"
        transform="translate(-22.25 -31.8)" />
    <polygon class="cls-3" points="69.86 0.01 69.86 0 69.86 0.01 69.86 0.01" />
    <path class="cls-4"
        d="M28.93,86.87a6.64,6.64,0,0,0,5.25-2.6s0,0,0,0c.31-.42.6-.76.6-.76s3.42-3.53,5.73,1.44a3.8,3.8,0,0,0,.42.73,11.44,11.44,0,1,0-.34-10.2s-.05.09-.08.15c-2.31,5-5.73,1.43-5.73,1.43l-.29-.42h0a6.6,6.6,0,0,0-5.59-3.11,6.69,6.69,0,0,0,0,13.37Z"
        transform="translate(-22.25 -31.8)" />
    <path class="cls-5"
        d="M154.35,86.87a6.64,6.64,0,0,1-5.25-2.6s0,0,0,0c-.31-.42-.6-.76-.6-.76S145,80,142.73,84.92a3.8,3.8,0,0,1-.42.73,11.44,11.44,0,1,1,.34-10.2l.08.15c2.31,5,5.73,1.43,5.73,1.43l.29-.42h0a6.6,6.6,0,0,1,5.59-3.11,6.69,6.69,0,0,1,0,13.37Z"
        transform="translate(-22.25 -31.8)" />
    <path class="cls-4"
        d="M51,61.58a18.5,18.5,0,0,1,8.88,2.25A35.73,35.73,0,0,1,91.66,44.46h.12A6.18,6.18,0,0,1,92,32.12h-.35A48.08,48.08,0,0,0,47.15,62,18.28,18.28,0,0,1,51,61.58Z"
        transform="translate(-22.25 -31.8)" />
    <path class="cls-4"
        d="M92.07,115.93h-.41A35.73,35.73,0,0,1,59.9,96.57,18.5,18.5,0,0,1,51,98.82a19,19,0,0,1-3.87-.4,48.12,48.12,0,0,0,44.49,29.87H92a5.44,5.44,0,0,0,.57,0,6.18,6.18,0,0,0-.5-12.33Z"
        transform="translate(-22.25 -31.8)" />
    <path class="cls-5"
        d="M123.42,63.82a18.56,18.56,0,0,1,8.87-2.24,18.37,18.37,0,0,1,3.88.41A48.13,48.13,0,0,0,92.1,32.12H92a6.18,6.18,0,0,0-.25,12.35h.33A35.75,35.75,0,0,1,123.42,63.82Z"
        transform="translate(-22.25 -31.8)" />
    <path class="cls-5"
        d="M132.29,98.82a18.56,18.56,0,0,1-8.87-2.24,35.73,35.73,0,0,1-31.35,19.35h0a6.18,6.18,0,0,1,.5,12.33,48.1,48.1,0,0,0,43.6-29.85A18.37,18.37,0,0,1,132.29,98.82Z"
        transform="translate(-22.25 -31.8)" />
</svg>
