<?xml version="1.0" encoding="UTF-8"?><svg id="a" xmlns="http://www.w3.org/2000/svg" width="900" height="235" viewBox="0 0 510.24 133.29">
  <defs>
    <style>
      .b {
        fill: #0ebdc6;
      }

      .c {
        fill: #0050af;
      }
    </style>
  </defs>
  <g>
    <path class="c"
      d="M267.19,81.15c-.84,0-1.64,.27-2.32,.78l-.28,.18c-1.38,.69-6.19,2.92-10.68,2.92-13.36,0-21.35-11.57-21.35-22.75s9.28-20.79,20.69-20.79c4.29,0,7.79,1.4,11.17,2.75l.25,.11,.19,.14c.68,.51,1.48,.78,2.32,.78,1.09,0,2.14-.45,2.95-1.25l7.17-7.18c-6.13-5.95-14.22-9.1-23.39-9.1-20.05,0-35.75,16.28-35.75,37.06,0,18.37,15.82,33.89,34.54,33.89,9.82,0,18.55-3.23,24.61-9.1l-7.18-7.18c-.81-.81-1.86-1.26-2.94-1.26Z" />
    <path class="c"
      d="M412.63,27.73h-56.41v13.94h23.55v57.01h13.94V41.67h23.55v-9.31c0-2.55-2.08-4.63-4.63-4.63Z" />
    <path class="c" d="M436.56,27.73h-9.4V98.68h14.03V32.36c0-2.55-2.08-4.63-4.63-4.63Z" />
    <path class="c"
      d="M503.06,82.41c-.81-.81-1.85-1.26-2.94-1.26-.84,0-1.64,.27-2.32,.78l-.28,.17c-1.37,.69-6.17,2.92-10.68,2.92-13.36,0-21.35-11.57-21.35-22.75s9.28-20.79,20.69-20.79c4.3,0,7.8,1.4,11.18,2.75l.25,.11,.19,.14c.68,.51,1.48,.78,2.32,.78,1.09,0,2.13-.45,2.94-1.25l7.18-7.18c-6.13-5.95-14.21-9.1-23.39-9.1-20.05,0-35.76,16.28-35.76,37.06,0,18.37,15.82,33.89,34.54,33.89,9.82,0,18.55-3.23,24.61-9.1l-7.18-7.18Z" />
    <path class="c"
      d="M341.04,57.57l.08-.03h-19.75v13.26h13.35v6.67c-1.49,2.06-4.31,3.9-4.31,3.9-.53,.34-1.1,.67-1.79,1.01l-.41,.21c-.41,.21-.87,.46-1.43,.64-.62,.23-1.55,.56-2.48,.79-2.02,.48-3.79,.71-5.41,.71s-3.44-.24-5.32-.71c-.77-.17-1.66-.44-2.64-.81-.69-.23-1.3-.59-1.75-.86-.73-.36-1.56-.79-2.34-1.34l-1.17-.86c-.16-.12-.3-.24-.43-.36l-.08-.07c-.08-.07-.15-.13-.22-.18l-.21-.16c-4.69-4.16-7.38-10.06-7.38-16.2,0-5.12,1.83-10.08,5.15-13.95l.23-.26c.17-.2,.35-.38,.53-.56l.11-.12s.09-.1,.14-.14c.07-.07,.13-.14,.2-.21,.86-.86,1.79-1.64,2.76-2.34l.3-.2s.02-.02,.04-.03l.03-.02c1.26-.87,2.59-1.59,3.97-2.15l.08-.03s.07-.03,.1-.04l.7-.27c2.27-.8,4.69-1.21,7.19-1.21,3.87,0,6.62,.99,6.65,1,.27,.07,.5,.17,.67,.26l.65,.24c.62,.2,1.16,.43,1.77,.73l.15,.08,1.35,.78c.21,.14,.44,.29,.66,.46l.15,.07c.58,.37,1.15,.79,1.8,1.34l9.89-9.89c-.79-.71-1.65-1.4-2.49-2.07-.61-.46-1.26-.87-1.96-1.3l-.18-.11c-1.28-.88-2.74-1.68-4.47-2.45-.3-.15-.54-.25-.76-.34h-.04c-.28-.13-.55-.24-.83-.38l-1.63-.51c-3.55-1.25-7.38-1.88-11.39-1.88s-7.81,.63-11.33,1.86l-1.7,.54c-.25,.12-.51,.23-.82,.36l-.1,.04c-.2,.09-.41,.17-.62,.28-1.76,.83-3.22,1.63-4.58,2.51-.76,.47-1.41,.88-1.95,1.34-1.55,1.17-2.78,2.23-4,3.45-6.69,6.69-10.38,15.61-10.38,25.1s3.69,18.32,10.38,25.11l.07,.07c1.26,1.17,2.45,2.27,3.83,3.3l.48,.35c.5,.36,1.02,.73,1.54,1.06l.12,.09c.1,.07,.21,.14,.33,.2l.07,.04c.19,.11,.45,.25,.68,.41l3.33,1.75c.23,.08,.48,.19,.73,.29l.07,.03c.23,.1,.47,.2,.7,.28l.24,.1c.32,.16,.74,.3,1.15,.43l.39,.13c3.54,1.24,7.36,1.86,11.36,1.86s7.81-.62,11.33-1.86c.46-.13,.82-.25,1.15-.38l.82-.37,1.62-.64c.22-.1,.44-.21,.57-.3l.35-.21c.69-.31,1.45-.72,2.21-1.19l1.17-.69,2.08-1.39c1.47-1.18,2.75-2.31,3.8-3.36l.07-.08c2.97-2.97,4.6-7.01,4.6-11.38v-6.05h.02v-6.22c-.77-6.54-7.64-7.02-7.64-7.02Zm7.53,13.24h.02s-.02,.05-.02,0Z" />
  </g>
  <g>
    <path class="b"
      d="M95.85,43.88c4.33,0,7.83-3.5,7.83-7.82s-3.5-7.83-7.83-7.83-7.83,3.5-7.83,7.83,3.51,7.82,7.83,7.82Z" />
    <path class="b"
      d="M105.07,97.23c0-2.96-1.42-5.57-3.6-7.25-.02-.02-.01-.05-.03-.06-.59-.42-1.05-.82-1.05-.82,0,0-4.89-4.72,1.99-7.92,.4-.19,.72-.38,1-.58,4.91-2.67,8.25-7.88,8.25-13.86,0-8.72-7.06-15.78-15.77-15.79-8.72,0-15.78,7.06-15.79,15.77,0,6.37,3.78,11.85,9.22,14.34,.07,.04,.13,.07,.21,.11,6.87,3.19,1.98,7.91,1.98,7.91l-.59,.41h0c-2.56,1.64-4.29,4.46-4.29,7.73,0,5.1,4.13,9.23,9.22,9.23,5.1,0,9.23-4.13,9.24-9.23Z" />
    <path class="b"
      d="M9.23,76.07c2.96,0,5.57-1.42,7.25-3.6,.02-.01,.05-.01,.06-.03,.42-.59,.82-1.05,.82-1.05,0,0,4.73-4.89,7.92,1.99,.19,.4,.38,.73,.58,1,2.67,4.91,7.88,8.25,13.86,8.25,8.72,0,15.78-7.06,15.79-15.77,0-8.72-7.06-15.78-15.77-15.79-6.37,0-11.85,3.78-14.34,9.22-.04,.07-.07,.13-.11,.21-3.19,6.87-7.91,1.98-7.91,1.98l-.41-.59h0c-1.64-2.56-4.46-4.28-7.72-4.28C4.14,57.6,0,61.73,0,66.83c0,5.1,4.13,9.23,9.23,9.24Z" />
    <path class="c"
      d="M182.47,76.07c-2.96,0-5.57-1.42-7.25-3.6-.02-.01-.05-.01-.06-.03-.42-.59-.82-1.05-.82-1.05,0,0-4.73-4.89-7.92,1.99-.19,.4-.38,.73-.58,1-2.67,4.91-7.88,8.25-13.86,8.25-8.72,0-15.78-7.06-15.79-15.77,0-8.72,7.06-15.78,15.77-15.79,6.37,0,11.85,3.78,14.34,9.22,.04,.07,.07,.13,.11,.21,3.19,6.87,7.91,1.98,7.91,1.98l.41-.59h0c1.64-2.56,4.46-4.28,7.72-4.28,5.1,0,9.23,4.13,9.23,9.23,0,5.1-4.13,9.23-9.23,9.24Z" />
    <g>
      <path class="b"
        d="M39.74,41.14c4.44,0,8.62,1.12,12.26,3.1,8.2-15.88,24.77-26.75,43.88-26.75,.06,0,.11,0,.17,0-4.55-.18-8.2-3.92-8.2-8.52S91.67,.45,96.38,.45c.04,0,.07,0,.11,0h0c-.2,0-.39-.02-.59-.02-27.79-.01-51.58,17.05-61.5,41.26,1.72-.36,3.51-.56,5.34-.56Z" />
      <path class="b"
        d="M96.45,116.21h0s-.04,0-.07,0c-.01,0-.02,0-.03,0-.03,0-.06,0-.1,0-.12,0-.25,.01-.38,.01-19.11,0-35.67-10.87-43.87-26.75-3.64,1.98-7.82,3.1-12.26,3.1-1.83,0-3.62-.2-5.34-.56,9.91,24.2,33.69,41.25,61.45,41.26,.11,0,.22,0,.32,0,.06,0,.12,0,.18,0,.27,0,.52-.01,.78-.04,4.35-.4,7.75-4.05,7.75-8.5,0-4.68-3.77-8.48-8.44-8.53Z" />
    </g>
    <g>
      <path class="c"
        d="M139.75,44.24c3.64-1.98,7.82-3.1,12.25-3.1,1.84,0,3.63,.2,5.36,.56C147.51,17.68,124.01,.7,96.49,.45h0s-.07,0-.11,0c-4.71,0-8.53,3.82-8.53,8.53s3.64,8.34,8.2,8.52c.11,0,.22,.02,.34,.02,.04,0,.07,0,.11,0,18.84,.23,35.14,11.02,43.25,26.73Z" />
      <path class="c"
        d="M152,92.58c-4.44,0-8.61-1.12-12.25-3.1-8.12,15.72-24.44,26.52-43.3,26.73h0c4.67,.06,8.44,3.86,8.44,8.54s-3.41,8.1-7.75,8.5c27.23-.51,50.46-17.39,60.23-41.23-1.73,.37-3.52,.56-5.36,.56Z" />
    </g>
  </g>
</svg>
