<!-- Lotus Logo - horizontal version -->
<svg xmlns="http://www.w3.org/2000/svg" width="750" height="200" viewBox="0 0 600 160">
  <defs>
    <style>
      .cls-1,
      .cls-2 {
        fill: #7f2389;
      }

      .cls-1 {
        fill-rule: evenodd;
      }
    </style>
  </defs>
  <path class="cls-1"
    d="M91.44,0h55.33A12.28,12.28,0,0,1,159,12.25v135.5A12.28,12.28,0,0,1,146.77,160H109.2c-1.11-16-7-26.37-14.75-35.7h18.14A37.51,37.51,0,0,0,150,86.89V49.48l-38.49.13a45.55,45.55,0,0,1,2.12,7.56h28.68V86.89a29.81,29.81,0,0,1-29.72,29.72H91.44V108c.36-.41.71-.82,1.06-1.24C102.64,94.89,108.2,83,109.18,71s-2.67-24.13-11-36.36a77.32,77.32,0,0,0-6.78-8.54V0Zm0,160h8.43a48.73,48.73,0,0,0-8.43-24.17V160Zm0-67.15c5-7.61,7.84-15.1,8.45-22.55a38.78,38.78,0,0,0-.5-10,30.12,30.12,0,0,0-7.79,5.62l-.16.16V92.85Zm0-36.78a38,38,0,0,1,5.87-3.31,59.09,59.09,0,0,0-5.87-11.51ZM79,0H91.44V26.13c-1.85-2-3.77-4-5.71-5.88L79,13.8V0ZM91.44,116.61h-4c-.66-.68-1.32-1.37-2-2,2-2,3.93-4.2,6-6.52v8.57Zm0-75.36V56.07a38.39,38.39,0,0,0-5.28,4.4,37.74,37.74,0,0,0-7.14,10V26.7A85.85,85.85,0,0,1,90.53,39.88c.31.46.62.92.91,1.37Zm0,24.82a29.61,29.61,0,0,0-8.57,20.82v16.83c.87-1,1.73-1.94,2.57-2.93a82,82,0,0,0,6-7.94V66.07Zm0,69.76V160H79V124.3H82A91.29,91.29,0,0,1,91.44,135.83ZM66.6,0H79V13.8l-6.71,6.45c-1.93,1.89-3.85,3.84-5.71,5.88V0Zm0,108c2,2.32,4,4.47,6,6.52l-2,2h-4V108ZM79,26.7V70.42A37.82,37.82,0,0,0,66.6,56.07V41.25l.91-1.37A87,87,0,0,1,79,26.7Zm0,97.6V160H66.6V135.83a92.16,92.16,0,0,1,9.49-11.53ZM66.6,92.85a80.54,80.54,0,0,0,6,7.94c.84,1,1.7,2,2.57,2.93V86.89A29.58,29.58,0,0,0,66.6,66.07ZM11.27,0H66.6V26.13a78.45,78.45,0,0,0-6.77,8.54C51.54,46.9,47.88,58.94,48.87,71S55.4,94.89,65.54,106.8L66.6,108v8.57H45.46A29.81,29.81,0,0,1,15.74,86.89V57.17H44.41a46.62,46.62,0,0,1,2.13-7.56L8.05,49.48V86.89A37.49,37.49,0,0,0,45.46,124.3H63.6C55.79,133.63,50,144,48.85,160H11.27A12.29,12.29,0,0,1-1,147.75V12.25A12.29,12.29,0,0,1,11.27,0ZM66.6,41.25a59,59,0,0,0-5.86,11.51,37.43,37.43,0,0,1,5.86,3.31V41.25Zm0,24.82-.15-.16a30.12,30.12,0,0,0-7.79-5.62,38.35,38.35,0,0,0-.5,10q.9,11.17,8.44,22.55V66.07Zm0,69.76A48.83,48.83,0,0,0,58.18,160H66.6Z" />
  <path class="cls-2"
    d="M542.09,89.29V79h3.1V69.46h14.58V79h38.5V89.29h-38.5v12.48H545.19V89.29Zm0-36.37V41.38l14.21-2V26.24h14.59v11l27.58-4V44.81l-27.58,4v4.61a3.21,3.21,0,0,0,3.25,3.25h24.33V67.05H567.84a11.42,11.42,0,0,1-8.18-3.36,11.53,11.53,0,0,1-3.36-8.18V50.89l-14.21,2Zm0-14.92.47-.11V26.45l-.47.12Zm0-11.43V38l-9.28,2.19V67.05H518.23V43.76l-12,2.83V35.26l35.82-8.69Zm0,14.81-.47.07V53l.47-.07V41.38Zm0,37.63V89.29H506.37V79ZM369.22,101.77V79h13.47V91.39a9.69,9.69,0,0,1-.83,4,10.78,10.78,0,0,1-5.56,5.56,10,10,0,0,1-4.1.84Zm0-26.54v-8.4a1.45,1.45,0,0,0,1.52-1.67v-2.1h-1.52v-8.5h1.52V51.21h-1.52v-8.5h13.47V54.56h1.79v8.5h-1.79v2.31a9.57,9.57,0,0,1-.78,3.88,10.35,10.35,0,0,1-2.1,3.1,9.8,9.8,0,0,1-3.15,2.09,9.52,9.52,0,0,1-3.83.79Zm0-36.61v-8.5h15.26v8.5ZM438,91.28V74H403.46V63.69H438V48H400.32l5.24-19.62h14.37l-3.25,9.34H438V26.35h14.58V37.68h37.87V48H452.56V63.69h34.51V74H452.56V91.28h36.82v10.28H401.16V91.28ZM369.22,30.12v8.5H361V26.14h3.31l.84,4Zm0,12.59v8.5h-1.53v3.35h1.53v8.5h-1.53v3.78h1.53v8.4h-1.53V79h1.53v22.76H361V93.38h4.15a3.24,3.24,0,0,0,3.25-3.25V87.5H361v-47h6.66v2.2ZM277.48,53.1h-2.83V90.65a10.82,10.82,0,0,1-.89,4.35,11.4,11.4,0,0,1-6,6,10.73,10.73,0,0,1-4.36.89H249.89l4-9H257a3.23,3.23,0,0,0,3.26-3.25V53.1H233.21V44.81h44.27V53.1Zm83.55-27V38.62H336.85V54.56h16.37V51.21H340.11v-8.5h13.11v-2.2H361v47h-7.39v5.88H361v8.39H339.27V79h14V75.23H340.11V66.84h13.11V63.06H336.85v27.8l-3.25,10.91H320l2.73-10.18V30.12h25.49l-.84-4ZM233.21,96.94h9.44a10.73,10.73,0,0,0,4.36-.89,10.87,10.87,0,0,0,3.51-2.41,11.75,11.75,0,0,0,2.36-3.57,10.92,10.92,0,0,0,.89-4.45V57.92H233.21v10h7.14V84a2.81,2.81,0,0,1-.79,2,2.56,2.56,0,0,1-1.94.84h-4.41V96.94Zm0-59.26V29.39h16L250.73,26h15.11l-1.47,3.36h13.11v8.29H260.7l-1.37,3h-15l1.26-3ZM320,97.15v-11l-6.81.63V48.38H320V37.26h-6.81V26.14H298.67V37.26h-6.29V48.38h6.29V87.92l-6.29.53v11ZM233.21,53.1H212.65V44.81h20.56V53.1Zm0-23.71v8.29H217.27l1.36,3h-15.1l-1.37-3H185.38V29.39h13.11L197,26h15.11l1.47,3.36Zm0,28.53v10h-8.08v19h8.08V96.94h-21.5v-39ZM209.5,45,203,59.6h2.2v42.27H191.36V65.37h-6l9-20.35Z" />
  <path class="cls-2"
    d="M569.26,129.73V125.8h3.13l-3.13-7.69h0v-5.32h2.67l9.11,22h-5.48l-2.14-5.08Zm14.64-16.94h4.66v12.38c.07,1.56.13,2.6.2,3.1a2.5,2.5,0,0,0,1.45,2.07,11.76,11.76,0,0,0,4.29.54H599v3.93h-5a23.77,23.77,0,0,1-5.12-.39,6.33,6.33,0,0,1-4.62-4.63,20.42,20.42,0,0,1-.37-4.62Zm-14.64,0v5.32l-3.14,7.69h3.14v3.93h-4.19l-2.15,5.08h-5.48l9.11-22Zm-54.75,22v-3.94a5,5,0,0,0,3.65-1.34,6.6,6.6,0,0,0,1.17-2.41,11.8,11.8,0,0,0,.44-3.3,11.53,11.53,0,0,0-.52-3.57,5.68,5.68,0,0,0-1.39-2.41,5.3,5.3,0,0,0-3.35-1.1V112.8a15.19,15.19,0,0,1,4.8.69,7.38,7.38,0,0,1,4.72,4.72,17.36,17.36,0,0,1,.89,5.64,18.1,18.1,0,0,1-.85,5.61,7.15,7.15,0,0,1-2.84,4,7.86,7.86,0,0,1-2.76,1.07,24.58,24.58,0,0,1-4,.28Zm14.43,0v-22h4.69v22Zm26.63-3.93v3.93h-7.69a18.64,18.64,0,0,1-3.34-.23,7.64,7.64,0,0,1-5.77-4.52,15.15,15.15,0,0,1-1.13-6.21,13.56,13.56,0,0,1,1.72-7.2,7.36,7.36,0,0,1,3.35-2.93,13.43,13.43,0,0,1,5.4-.93h7.46v3.93h-6.93a5.76,5.76,0,0,0-4.59,1.68c-.82.93-1.22,2.6-1.22,5,0,3.26.62,5.39,1.88,6.41a6.62,6.62,0,0,0,4.13,1ZM514.51,112.8v3.94l-.61,0h-4.66v14.16h5.27v3.94h-9.95v-22h9.95ZM438.6,134.94v-3.69h.07a5,5,0,0,0,4.27-1.82q1.37-1.82,1.37-5.61a10.12,10.12,0,0,0-1.12-5.28q-1.29-2.15-4.56-2.18h0v-3.7a14.07,14.07,0,0,1,5.81,1.12,7.77,7.77,0,0,1,4.13,4.53,16.71,16.71,0,0,1,.92,5.81,14,14,0,0,1-1.12,5.84,8.11,8.11,0,0,1-4.36,4.13,13.68,13.68,0,0,1-5,.85Zm21.64-22.15,5.48,17.2,5.78-17.2h6.83v22h-4.45v-16.5l-5.75,16.5h-4.82l-5.44-16.5v16.5h-4.46v-22Zm39.87,0v3.93H494a13,13,0,0,0-3.46.33,3.54,3.54,0,0,0-1.82,1.29,4.16,4.16,0,0,0-.68,1.32,14.47,14.47,0,0,0-.31,2.24h12.38v3.93H487.73a5.45,5.45,0,0,0,1.68,4c.95.73,2.56,1.1,4.82,1.1h5.88v3.93H494a27.83,27.83,0,0,1-4.35-.3,7.49,7.49,0,0,1-4.73-2.6,12.55,12.55,0,0,1-2.5-8.22q0-5.75,3.53-9a7.06,7.06,0,0,1,2.59-1.52,12.56,12.56,0,0,1,3.68-.43Zm-61.51-.13v3.7a5.11,5.11,0,0,0-4.59,2.11q-1.12,1.65-1.12,5.32,0,3.85,1.38,5.67a5.21,5.21,0,0,0,4.33,1.79v3.69a13.89,13.89,0,0,1-6.11-1.38,7.73,7.73,0,0,1-3.53-3.63,13.45,13.45,0,0,1-1.22-6q0-6.32,3.13-9,2.64-2.25,7.73-2.28Zm-33.8,22.15v-3.93h1.5a7.61,7.61,0,0,0,1.49-.1,1.94,1.94,0,0,0,.86-.43,2.59,2.59,0,0,0,1-2.17,2.17,2.17,0,0,0-1-2,4.3,4.3,0,0,0-2.31-.46h-1.6v-3.93h1.5a8.16,8.16,0,0,0,1.47-.1,2.32,2.32,0,0,0,.88-.43,2.6,2.6,0,0,0,1-2.18,2.17,2.17,0,0,0-1-1.95,4.3,4.3,0,0,0-2.31-.46h-1.6v-3.93h2.89a9.56,9.56,0,0,1,4.26.7,4.91,4.91,0,0,1,2.34,2.54,5.91,5.91,0,0,1,.56,2.54,6,6,0,0,1-.91,3.2,4.83,4.83,0,0,1-2.29,2,5.21,5.21,0,0,1,3.2,5.18,6.12,6.12,0,0,1-1,3.6,4.56,4.56,0,0,1-2.28,1.73,13.38,13.38,0,0,1-4.13.48Zm14.23,0v-22h4.69v22Zm-14.23-22v3.93h-4.87v5.12h4.87v3.93h-4.87v5.11h4.87v3.93h-9.56v-22Zm-81.13,16.94V125.8h3.14l-3.14-7.69v-5.32h2.68l9.11,22H330l-2.15-5.08Zm19.6-16.94v22h-4.69v-22Zm.17,10.9,8.41-10.9H358l-9.21,10.9,8.78,11.12h-6.17l-8-11.12Zm34.15-10.9v3.93h-6.1a13.11,13.11,0,0,0-3.47.33,3.54,3.54,0,0,0-1.82,1.29,3.93,3.93,0,0,0-.67,1.32,14.16,14.16,0,0,0-.32,2.24h12.38v3.93H365.21a5.42,5.42,0,0,0,1.69,4c.94.73,2.55,1.1,4.82,1.1h5.87v3.93h-6.1a28,28,0,0,1-4.36-.3,7.46,7.46,0,0,1-4.72-2.6c-1.68-2-2.51-4.77-2.51-8.22q0-5.75,3.53-9a7.14,7.14,0,0,1,2.59-1.52,12.6,12.6,0,0,1,3.68-.43Zm-53.92,0v5.32l-3.13,7.69h3.13v3.93h-4.19l-2.14,5.08h-5.48l9.11-22ZM213.11,134.94v-3.69h.06a5,5,0,0,0,4.28-1.82q1.37-1.82,1.37-5.61a10.22,10.22,0,0,0-1.12-5.28q-1.29-2.15-4.56-2.18h0v-3.7h0a14.07,14.07,0,0,1,5.81,1.12,7.73,7.73,0,0,1,4.12,4.53,16.47,16.47,0,0,1,.93,5.81,14.18,14.18,0,0,1-1.12,5.84,8.11,8.11,0,0,1-4.36,4.13,13.68,13.68,0,0,1-5,.85Zm19.79-18.22h-7v-3.93h19v3.93h-7.3v18.09H232.9V116.72Zm19.54-3.93V126a8.86,8.86,0,0,0,.26,2.46,3.57,3.57,0,0,0,.89,1.5,5.29,5.29,0,0,0,3.86,1.35,6.53,6.53,0,0,0,2.76-.54,3.29,3.29,0,0,0,1.63-1.47,8.12,8.12,0,0,0,.47-3.3V112.79H267v13a14,14,0,0,1-.54,4.24,6.08,6.08,0,0,1-1.67,2.69q-2.61,2.28-7.39,2.28-5.12,0-7.46-2.25a6.1,6.1,0,0,1-1.69-2.59,13.77,13.77,0,0,1-.46-4V112.79Zm19.46,22v-3.93H282a7.23,7.23,0,0,0,3.2-.46,2.27,2.27,0,0,0,1.16-2.08A2.45,2.45,0,0,0,285,126a5.13,5.13,0,0,0-2.44-.43h-4.09q-3.74,0-5.38-1.36a5.72,5.72,0,0,1-1.6-2.14,6.61,6.61,0,0,1-.58-2.77,7.19,7.19,0,0,1,1.35-4.23,5.69,5.69,0,0,1,4.23-2.18c.66-.06,1.64-.1,2.93-.1h10.93v3.93h-9.87a17.42,17.42,0,0,0-2.94.2c-1,.24-1.48,1-1.48,2.24a2.08,2.08,0,0,0,1.25,2.12,7.08,7.08,0,0,0,2.78.39h3.53a13.39,13.39,0,0,1,4,.46,5.14,5.14,0,0,1,3.23,2.78,8.4,8.4,0,0,1,.69,3.4,7,7,0,0,1-.92,3.6,5.33,5.33,0,0,1-3.86,2.7,25.39,25.39,0,0,1-3.8.2Zm23.53-22h4.65v12.38c.07,1.56.13,2.6.2,3.1a2.5,2.5,0,0,0,1.45,2.07,11.83,11.83,0,0,0,4.29.54h4.49v3.93h-5a23.77,23.77,0,0,1-5.12-.39,6.33,6.33,0,0,1-4.62-4.63,20.57,20.57,0,0,1-.36-4.62Zm-110.57,0h4.66v12.38c.06,1.56.13,2.6.19,3.1a2.51,2.51,0,0,0,1.46,2.07,11.76,11.76,0,0,0,4.29.54H200v3.93h-5a23.66,23.66,0,0,1-5.11-.39,6.35,6.35,0,0,1-4.63-4.63,20.57,20.57,0,0,1-.36-4.62V112.79Zm28.25-.13v3.7a5.11,5.11,0,0,0-4.59,2.11q-1.12,1.65-1.12,5.32,0,3.85,1.38,5.67a5.21,5.21,0,0,0,4.33,1.79v3.69a13.89,13.89,0,0,1-6.11-1.38,7.73,7.73,0,0,1-3.53-3.63,13.45,13.45,0,0,1-1.22-6q0-6.32,3.13-9Q208,112.69,213.11,112.66Z" />
</svg>
